<svg width="59" height="18" viewBox="0 0 59 18" fill="none" xmlns="http://www.w3.org/2000/svg">
<path d="M37.8637 9.60043C37.8637 9.34565 37.8483 9.06028 37.7409 8.84117C36.5085 6.37481 35.3988 3.77088 34.1305 1.32491C33.6805 0.453537 32.9134 -0.00508144 31.906 0.00511009C30.6377 0.0153016 29.3746 0.00511009 28.1064 0.00511009C27.5438 0.00511009 26.9762 0.00511009 26.2551 0.00511009C26.6182 0.575836 26.9097 0.983497 27.1245 1.40135C28.403 3.89318 29.6661 6.3952 30.9292 8.89722C32.1412 11.2922 33.4811 13.835 34.7084 16.2198C35.1891 17.1524 35.7516 17.5957 36.5085 17.4224C37.3983 17.2135 37.8637 16.5103 37.8637 15.3688V9.60043Z" fill="white"/>
<path d="M54.0288 9.49341C52.6889 6.84361 51.3337 4.20401 49.999 1.55421C49.4467 0.458619 48.6183 -0.0356703 47.3653 0.0101915C47.1403 0.0152873 42.006 0 42.006 0C42.006 0 48.025 11.6234 50.5666 16.6479C50.7712 17.0504 51.0269 17.4734 51.569 17.4734C53.4765 17.4734 58.0022 17.4734 58.0022 17.4734C58.0022 17.4734 55.2714 11.9496 54.0288 9.49341Z" fill="white"/>
<path d="M45.3506 7.97487C44.6244 6.48181 43.9954 5.2894 43.2385 3.80653C42.7834 2.92496 42.3436 2.02811 41.8322 1.17202C41.4077 0.458614 40.5946 0.132485 39.9452 0.310837C39.173 0.524859 38.7025 1.11597 38.6309 1.98734C38.6053 2.27271 38.6156 2.55807 38.6156 2.83834C38.6156 6.70602 38.6207 10.5686 38.6156 14.4363C38.6156 15.4453 38.7945 16.5561 37.7615 17.4683C37.7615 17.4683 41.8015 17.4683 43.4635 17.4683C45.013 17.4683 45.7699 16.7192 45.7648 15.1752C45.7597 13.2286 45.7648 9.34053 45.7648 9.34053C45.7648 8.70866 45.5091 8.30609 45.3506 7.97487Z" fill="white"/>
<path d="M22.4659 3.03705C22.4659 2.02808 22.3432 0.922303 23.3762 0.00506592H17.1372C16.9787 0.00506592 16.7179 0.0407363 16.6258 0.0713108C15.8536 0.285333 15.4445 0.835676 15.3678 1.70705C15.3423 1.98732 15.3576 15.272 15.3576 15.3433C15.3423 16.0414 15.3423 16.9281 14.4473 17.4733H20.1084C21.4892 17.4733 22.3278 16.8313 22.4761 15.6083C22.4915 15.537 22.4608 6.90473 22.4659 3.03705Z" fill="white"/>
<path d="M7.14967 9.65644C7.14456 9.26916 4.30634 3.66382 3.1506 1.42678C2.98184 1.09556 2.72104 0.764334 2.46534 0.494258C1.65735 -0.341447 0.297049 -0.0306055 0.0669234 1.2892C0.0157844 1.58985 0.0157844 1.93636 0.0157844 2.24211C0.0106705 4.49953 0.0311261 14.1968 0.000442748 16.5663C-0.00978505 17.1982 0.15386 17.453 0.839122 17.4479C2.68012 17.4224 4.52113 17.4479 6.35702 17.4988C6.98603 17.5141 7.19058 17.3052 7.18035 16.6835C7.15478 14.314 7.17013 12.0311 7.14967 9.65644Z" fill="white"/>
<path d="M30.3207 10.3852C30.3412 10.2068 30.3207 10.0335 30.3207 9.8501C30.3207 9.69722 30.2543 9.4832 30.1673 9.26408C30.1315 9.14688 30.0855 9.02968 30.0344 8.92267C29.4309 7.6793 27.4365 3.73518 26.4955 1.96185C26.4393 1.84975 26.3779 1.73255 26.3217 1.62044C26.2757 1.52871 26.2194 1.43699 26.1631 1.34527C26.1325 1.28412 26.1018 1.23826 26.0762 1.19749C25.7336 0.621669 25.2938 0.244582 24.8131 0.234391C24.0153 0.203816 23.4119 0.524849 23.238 1.51343C23.2175 1.62044 23.2073 1.72745 23.2022 1.83446C23.192 1.89051 23.1869 1.95166 23.1817 2.01281C23.1562 2.29818 23.1664 2.58354 23.1664 2.86381C23.1664 6.73149 23.1715 10.5941 23.1664 14.4618C23.1664 15.4707 23.4068 16.6173 22.1948 17.4734H28.0502C29.5997 17.4734 30.331 16.7498 30.331 15.2006C30.3207 13.3866 30.3514 12.1177 30.3207 10.3852Z" fill="white"/>
<path d="M14.6722 9.60043C14.6722 9.34565 14.6569 9.06028 14.5495 8.84117C13.317 6.37481 12.2073 3.77088 10.9391 1.32491C10.489 0.453537 9.72195 -0.00508144 8.71452 0.00511009C7.44627 0.0153016 6.18314 0.00511009 4.91489 0.00511009C4.35236 0.00511009 3.78472 0.00511009 3.06366 0.00511009C3.42675 0.575836 3.71824 0.983497 3.93302 1.40135C5.2115 3.89318 6.47463 6.3952 7.73776 8.89722C8.94976 11.2922 10.2896 13.835 11.5169 16.2198C11.9976 17.1524 12.5602 17.5957 13.317 17.4224C14.2068 17.2135 14.6722 16.5103 14.6722 15.3688V9.60043Z" fill="white"/>
</svg>
