<svg width="255" height="30" viewBox="0 0 255 30" fill="none" xmlns="http://www.w3.org/2000/svg">
<path d="M249 7.94201V4.76893C249 3.36698 247.863 2.23047 246.462 2.23047H218.538C217.137 2.23047 216 3.36698 216 4.76893V25.9228C216 27.3247 217.137 28.4612 218.538 28.4612H246.462C247.863 28.4612 249 27.3247 249 25.9228V7.94201ZM249 7.94201H216" stroke="#283F59" stroke-width="1.26923"/>
<path d="M226.181 13.3899L221.606 17.9648L226.181 22.5397M239.035 13.3899L243.61 17.9648L239.035 22.5397M235.549 12.7363L229.449 23.4111" stroke="#748599" stroke-width="1.30712" stroke-linecap="round" stroke-linejoin="round"/>
<circle cx="218.776" cy="5.10864" r="0.653559" fill="#748599"/>
<circle cx="220.954" cy="5.10864" r="0.653559" fill="#748599"/>
<circle cx="223.132" cy="5.10864" r="0.653559" fill="#748599"/>
<path d="M13.9292 28.4517C6.17871 28.4517 1.35498 23.2666 1.35498 14.9741V14.938C1.35498 6.64551 6.21484 1.47852 13.9292 1.47852C21.6616 1.47852 26.5034 6.66357 26.5034 14.938V14.9741C26.5034 23.2666 21.6797 28.4517 13.9292 28.4517ZM13.9292 23.8267C18.2651 23.8267 20.939 20.376 20.939 14.9741V14.938C20.939 9.5 18.2109 6.10352 13.9292 6.10352C9.66553 6.10352 6.91943 9.48193 6.91943 14.938V14.9741C6.91943 20.4302 9.64746 23.8267 13.9292 23.8267ZM29.5747 28V8.63281H34.8501V11.8848H34.9585C35.7534 9.68066 37.7769 8.23535 40.3784 8.23535C43.0884 8.23535 45.0576 9.68066 45.708 12.228H45.8164C46.6836 9.78906 48.9961 8.23535 51.8325 8.23535C55.6265 8.23535 58.1738 10.855 58.1738 14.7573V28H52.8984V16.0762C52.8984 13.8359 51.7783 12.6074 49.7368 12.6074C47.7314 12.6074 46.4126 14.0708 46.4126 16.2207V28H41.3359V15.9136C41.3359 13.8359 40.1616 12.6074 38.2104 12.6074C36.2051 12.6074 34.8501 14.125 34.8501 16.311V28H29.5747ZM70.3325 28.3975C64.4067 28.3975 60.8115 24.5493 60.8115 18.3525V18.3345C60.8115 12.1738 64.4429 8.23535 70.1157 8.23535C75.7886 8.23535 79.3477 12.0835 79.3477 17.937V19.563H66.0146C66.0688 22.6523 67.749 24.459 70.4409 24.459C72.6089 24.459 73.9277 23.2666 74.3071 22.1826L74.3433 22.0742H79.1851L79.1309 22.2729C78.5347 25.1274 75.8608 28.3975 70.3325 28.3975ZM70.2061 12.1738C68.0381 12.1738 66.4121 13.6191 66.0688 16.2388H74.2891C73.9639 13.5649 72.3921 12.1738 70.2061 12.1738ZM82.0757 28V8.63281H87.3511V12.0112H87.4595C88.0376 9.62646 89.6094 8.23535 91.8677 8.23535C92.4458 8.23535 92.9878 8.32568 93.3853 8.43408V13.0771C92.9517 12.8965 92.229 12.7881 91.4702 12.7881C88.8687 12.7881 87.3511 14.3418 87.3511 17.1602V28H82.0757Z" fill="#283F59"/>
<path d="M103.34 28V1.93018H108.109L119.889 18.8765H119.997V1.93018H125.435V28H120.702L108.886 10.9272H108.778V28H103.34ZM134.703 28.3071C130.819 28.3071 128.199 25.8682 128.199 22.4536V22.4175C128.199 18.8945 130.927 16.835 135.733 16.5278L140.521 16.2388V15.0464C140.521 13.3301 139.4 12.2642 137.341 12.2642C135.372 12.2642 134.179 13.1855 133.926 14.4321L133.89 14.5947H129.066L129.084 14.3779C129.374 10.8008 132.445 8.23535 137.558 8.23535C142.562 8.23535 145.796 10.8188 145.796 14.7212V28H140.521V25.1094H140.412C139.31 27.0967 137.25 28.3071 134.703 28.3071ZM133.42 22.1826C133.42 23.6099 134.595 24.459 136.419 24.459C138.786 24.459 140.521 22.9414 140.521 20.918V19.5269L136.528 19.7798C134.486 19.9062 133.42 20.7734 133.42 22.1465V22.1826ZM154.215 28L147.512 8.63281H153.149L157.196 23.3389H157.304L161.297 8.63281H166.807L160.159 28H154.215ZM176.78 28.3975C170.854 28.3975 167.259 24.5493 167.259 18.3525V18.3345C167.259 12.1738 170.89 8.23535 176.563 8.23535C182.236 8.23535 185.795 12.0835 185.795 17.937V19.563H172.462C172.516 22.6523 174.196 24.459 176.888 24.459C179.056 24.459 180.375 23.2666 180.754 22.1826L180.791 22.0742H185.632L185.578 22.2729C184.982 25.1274 182.308 28.3975 176.78 28.3975ZM176.653 12.1738C174.485 12.1738 172.859 13.6191 172.516 16.2388H180.736C180.411 13.5649 178.839 12.1738 176.653 12.1738ZM188.649 28V1.93018H193.925V11.9751H194.033C195.027 9.57227 197.068 8.23535 199.977 8.23535C204.168 8.23535 206.77 11.1621 206.77 15.8413V28H201.495V16.9253C201.495 14.2153 200.158 12.6074 197.755 12.6074C195.424 12.6074 193.925 14.3779 193.925 16.9072V28H188.649Z" fill="#748599"/>
</svg>
